<?xml version="1.0" encoding="UTF-8"?>
<svg width="38px" height="38px" viewBox="0 0 38 38" version="1.1" xmlns="http://www.w3.org/2000/svg" xmlns:xlink="http://www.w3.org/1999/xlink">
    <!-- Generator: Sketch 50.2 (55047) - http://www.bohemiancoding.com/sketch -->
    <title>Risk-Based</title>
    <desc>Created with Sketch.</desc>
    <defs></defs>
    <g id="Mobile" stroke="none" stroke-width="1" fill="none" fill-rule="evenodd">
        <g id="Homepage_Hero_1" transform="translate(-165.000000, -2350.000000)">
            <g id="Risk-Based" transform="translate(166.000000, 2351.000000)">
                <circle id="Oval" stroke="#323232" cx="18" cy="18" r="18"></circle>
                <path d="M9.5,9.5 L9.5,21.0761844 C9.5,22.2994374 9.90779597,23.487783 10.6588955,24.4532876 C11.372632,25.3707613 12.0503496,26.1031955 12.6896352,26.6502721 C13.6695261,27.488826 15.4431406,28.6506326 17.9996688,30.1249226 C20.741174,28.5409313 22.5459373,27.3772695 23.395469,26.6502721 C23.9709441,26.1578021 24.6390437,25.4090483 25.3939344,24.4063701 C26.1117837,23.4528919 26.5000051,22.2917837 26.5000051,21.0982898 L26.5000002,9.5 L9.5,9.5 Z" id="Rectangle-3" stroke="#323232"></path>
                <polygon id="Star" fill="#E95430" points="18 20.6450001 14.7671811 22.9495935 15.9599837 19.1628415 12.7691892 16.8004065 16.7392006 16.7646585 18 13 19.2607994 16.7646585 23.2308108 16.8004065 20.0400163 19.1628415 21.2328189 22.9495935"></polygon>
            </g>
        </g>
    </g>
</svg>